# xmcd CD database file
#
# Track frame offsets:
#	150
#	20012
#	44437
#	68200
#	94350
#
# Disc length: 1529 seconds
#
# Revision: 0
# Processed by: cddbd v1.5PL3 Copyright (c) Steve Scherf et al.
# Submitted via: CDex 1.51
#
DISCID=4205f705
DTITLE=矢部美穂 - Variety Kids
DYEAR=1996
DGENRE=Pop
TTITLE0=雨が降ればいいのに
TTITLE1=ARK〜未来を探して〜
TTITLE2=微笑みにかわるまで
TTITLE3=シャボン玉(Album Version)
TTITLE4=遺書
EXTD=YEAR: 1996
EXTT0=
EXTT1=
EXTT2=
EXTT3=
EXTT4=
PLAYORDER=
